<svg version="1.1" viewBox="0.0 0.0 960.0 540.0" fill="none" stroke="none" stroke-linecap="square" stroke-miterlimit="10" xmlns:xlink="http://www.w3.org/1999/xlink" xmlns="http://www.w3.org/2000/svg"><clipPath id="g245e706a03b_0_0.0"><path d="m0 0l960.0 0l0 540.0l-960.0 0l0 -540.0z" clip-rule="nonzero"/></clipPath><g clip-path="url(#g245e706a03b_0_0.0)"><path fill="#3a6cc9" d="m0 0l960.0 0l0 540.0l-960.0 0z" fill-rule="evenodd"/><path fill="#e1e6d5" d="m843.9417 22.766287c63.423218 0 115.28052 52.53942 115.28052 116.805595l0 400.396l-230.38849 0l0 -400.396c0 -64.266174 51.8573 -116.805595 115.10797 -116.805595z" fill-rule="evenodd"/><path fill="#daa7ae" d="m789.8893 75.28701c56.98401 0 103.576355 47.207428 103.576355 104.95153l0 359.76166l-206.99762 0l0 -359.76166c0 -57.744102 46.592346 -104.95153 103.421265 -104.95153z" fill-rule="evenodd"/><path fill="#92b59f" d="m732.5404 127.542755c50.574646 0 91.92651 41.897736 91.92651 93.14703l0 319.2972l-183.7154 0l0 -319.2972c0 -51.2493 41.351807 -93.14703 91.78888 -93.14703z" fill-rule="evenodd"/><path fill="#eabb4f" d="m676.7122 186.2075c43.381775 0 78.852356 35.93889 78.852356 79.89931l0 273.88562l-157.58673 0l0 -273.88562c0 -43.96042 35.470642 -79.89931 78.734375 -79.89931z" fill-rule="evenodd"/></g></svg>